<svg xmlns="http://www.w3.org/2000/svg" viewBox="0 0 64 64" role="img" aria-label="Icono ONU">
  <circle cx="32" cy="32" r="19" fill="none" stroke="currentColor" stroke-width="3"/>
  <path d="M32 13c-6 5-9.5 11.7-9.5 19S26 46 32 51c6-5 9.5-11.7 9.5-19S38 18 32 13Z" fill="none" stroke="currentColor" stroke-width="3" stroke-linejoin="round"/>
  <path d="M13 32h38M17 23c4.8 2.7 10 4 15 4s10.2-1.3 15-4M17 41c4.8-2.7 10-4 15-4s10.2 1.3 15 4" fill="none" stroke="currentColor" stroke-width="3" stroke-linecap="round"/>
  <path d="M12 43c4.2 6.7 11.7 11 20 11s15.8-4.3 20-11M12 21c4.2-6.7 11.7-11 20-11s15.8 4.3 20 11" fill="none" stroke="currentColor" stroke-width="3" stroke-linecap="round" opacity=".55"/>
</svg>
